<svg xmlns="http://www.w3.org/2000/svg" width="28" height="38" viewBox="0 0 28 38" fill="none">
<path d="M13.5667 0C6.16954 0 0 5.95864 0 13.5667C0 16.4611 0.869746 19.042 2.53894 21.4605L12.5284 37.0482C13.0131 37.8059 14.1213 37.8045 14.6049 37.0482L24.6377 21.4075C26.271 19.0986 27.1333 16.3875 27.1333 13.5667C27.1333 6.08601 21.0473 0 13.5667 0ZM13.5667 19.7333C10.1665 19.7333 7.4 16.9668 7.4 13.5667C7.4 10.1665 10.1665 7.4 13.5667 7.4C16.9668 7.4 19.7333 10.1665 19.7333 13.5667C19.7333 16.9668 16.9668 19.7333 13.5667 19.7333Z" fill="#232332"/>
</svg>