<svg xmlns="http://www.w3.org/2000/svg" version="1.1" xmlns:xlink="http://www.w3.org/1999/xlink" width="182.6" height="182.6"><svg xmlns="http://www.w3.org/2000/svg" id="SvgjsSvg1001" version="1.1" viewBox="0 0 182.6 182.6"><defs><style> .st0 { fill: #1d1d1b; } </style></defs><path class="st0" d="M146.1,36.4h-3v53.4h-18.4v-53.4H36.5v109.7h3v-53.4h18.4v50.4h0v3h88.1v-1.5h0V36.4h0ZM121.9,89.8h-18.4v-50.4h18.4v50.4ZM82.2,39.4h18.4v50.4h-18.4v-50.4h0ZM79.2,89.8h-18.4v-50.4h18.4v50.4ZM39.5,89.8v-50.4h18.4v50.4h-18.4ZM60.9,92.8h18.4v50.4h-18.4s0-50.4,0-50.4ZM82.2,143.2v-50.4h18.4v50.4s-18.4,0-18.4,0ZM103.5,143.2v-50.4h39.7v50.4h-39.7Z"></path></svg><style>@media (prefers-color-scheme: light) { :root { filter: none; } }
@media (prefers-color-scheme: dark) { :root { filter: none; } }
</style></svg>